<svg width="24" height="25" viewBox="0 0 24 25" fill="none" xmlns="http://www.w3.org/2000/svg">
<path d="M12 2.53662C10.0716 2.53662 8.18657 3.10845 6.58319 4.17979C4.97982 5.25114 3.73013 6.77388 2.99218 8.55546C2.25422 10.337 2.06114 12.2974 2.43735 14.1888C2.81355 16.0801 3.74215 17.8174 5.10571 19.1809C6.46928 20.5445 8.20656 21.4731 10.0979 21.8493C11.9892 22.2255 13.9496 22.0324 15.7312 21.2944C17.5127 20.5565 19.0355 19.3068 20.1068 17.7034C21.1782 16.1001 21.75 14.215 21.75 12.2866C21.7473 9.7016 20.7192 7.22323 18.8913 5.39534C17.0634 3.56746 14.585 2.53935 12 2.53662ZM6.945 18.8022C7.48757 17.9537 8.23501 17.2554 9.11843 16.7717C10.0019 16.288 10.9928 16.0344 12 16.0344C13.0072 16.0344 13.9982 16.288 14.8816 16.7717C15.765 17.2554 16.5124 17.9537 17.055 18.8022C15.6097 19.9263 13.831 20.5366 12 20.5366C10.169 20.5366 8.39032 19.9263 6.945 18.8022ZM9 11.5366C9 10.9433 9.17595 10.3633 9.5056 9.86991C9.83524 9.37656 10.3038 8.99204 10.852 8.76498C11.4001 8.53792 12.0033 8.47851 12.5853 8.59426C13.1672 8.71002 13.7018 8.99574 14.1213 9.4153C14.5409 9.83486 14.8266 10.3694 14.9424 10.9514C15.0581 11.5333 14.9987 12.1365 14.7716 12.6847C14.5446 13.2328 14.1601 13.7014 13.6667 14.031C13.1734 14.3607 12.5933 14.5366 12 14.5366C11.2044 14.5366 10.4413 14.2205 9.87868 13.6579C9.31607 13.0953 9 12.3323 9 11.5366ZM18.165 17.7626C17.3285 16.5504 16.1524 15.6127 14.7844 15.0672C15.5192 14.4885 16.0554 13.6951 16.3184 12.7975C16.5815 11.8998 16.5582 10.9425 16.252 10.0587C15.9457 9.17487 15.3716 8.40845 14.6096 7.86602C13.8475 7.32358 12.9354 7.0321 12 7.0321C11.0646 7.0321 10.1525 7.32358 9.39044 7.86602C8.62839 8.40845 8.05432 9.17487 7.74805 10.0587C7.44179 10.9425 7.41855 11.8998 7.68157 12.7975C7.94459 13.6951 8.4808 14.4885 9.21563 15.0672C7.84765 15.6127 6.67147 16.5504 5.835 17.7626C4.77804 16.574 4.0872 15.1052 3.84567 13.533C3.60415 11.9609 3.82224 10.3525 4.47368 8.9014C5.12512 7.45034 6.18213 6.21854 7.51745 5.35431C8.85276 4.49009 10.4094 4.03029 12 4.03029C13.5906 4.03029 15.1473 4.49009 16.4826 5.35431C17.8179 6.21854 18.8749 7.45034 19.5263 8.9014C20.1778 10.3525 20.3959 11.9609 20.1543 13.533C19.9128 15.1052 19.222 16.574 18.165 17.7626Z" fill="#12705B"/>
</svg>
