<svg width="24" height="25" viewBox="0 0 24 25" fill="none" xmlns="http://www.w3.org/2000/svg">
<path d="M20.8472 15.1421L16.4306 13.163L16.4184 13.1574C16.1892 13.0593 15.939 13.0199 15.6907 13.0429C15.4424 13.0658 15.2037 13.1502 14.9963 13.2886C14.9718 13.3048 14.9484 13.3223 14.9259 13.3411L12.6441 15.2864C11.1984 14.5842 9.70595 13.103 9.00376 11.6761L10.9519 9.35956C10.9706 9.33612 10.9884 9.31268 11.0053 9.28737C11.1407 9.08046 11.2229 8.8433 11.2445 8.59697C11.2661 8.35064 11.2264 8.1028 11.1291 7.87549V7.86424L9.14438 3.44018C9.0157 3.14324 8.79444 2.89588 8.51362 2.73503C8.2328 2.57418 7.9075 2.50846 7.58626 2.54768C6.31592 2.71484 5.14986 3.33871 4.30588 4.30277C3.4619 5.26683 2.99771 6.50514 3.00001 7.78643C3.00001 15.2302 9.05626 21.2864 16.5 21.2864C17.7813 21.2887 19.0196 20.8245 19.9837 19.9806C20.9477 19.1366 21.5716 17.9705 21.7388 16.7002C21.7781 16.3791 21.7125 16.0538 21.5518 15.773C21.3911 15.4922 21.144 15.2709 20.8472 15.1421ZM16.5 19.7864C13.3185 19.783 10.2682 18.5176 8.01856 16.2679C5.76888 14.0182 4.50348 10.968 4.50001 7.78643C4.49648 6.87095 4.82631 5.98549 5.42789 5.29541C6.02947 4.60532 6.86167 4.15781 7.76907 4.03643C7.7687 4.04017 7.7687 4.04394 7.76907 4.04768L9.73782 8.45393L7.80001 10.7733C7.78034 10.7959 7.76247 10.8201 7.74657 10.8455C7.60549 11.062 7.52273 11.3112 7.5063 11.5691C7.48988 11.827 7.54035 12.0847 7.65282 12.3174C8.5022 14.0546 10.2525 15.7917 12.0084 16.6402C12.2428 16.7516 12.502 16.8003 12.7608 16.7816C13.0196 16.7629 13.2692 16.6773 13.485 16.5333C13.5091 16.5171 13.5322 16.4996 13.5544 16.4808L15.8334 14.5364L20.2397 16.5099C20.2397 16.5099 20.2472 16.5099 20.25 16.5099C20.1301 17.4186 19.6833 18.2524 18.9931 18.8555C18.3028 19.4586 17.4166 19.7895 16.5 19.7864Z" fill="#12705B"/>
</svg>
