<svg width="24" height="25" viewBox="0 0 24 25" fill="none" xmlns="http://www.w3.org/2000/svg">
<path d="M12 2.53662C10.0716 2.53662 8.18657 3.10845 6.58319 4.17979C4.97982 5.25114 3.73013 6.77388 2.99218 8.55546C2.25422 10.337 2.06114 12.2974 2.43735 14.1888C2.81355 16.0801 3.74215 17.8174 5.10571 19.1809C6.46928 20.5445 8.20656 21.4731 10.0979 21.8493C11.9892 22.2255 13.9496 22.0324 15.7312 21.2944C17.5127 20.5565 19.0355 19.3068 20.1068 17.7034C21.1782 16.1001 21.75 14.215 21.75 12.2866C21.747 9.70167 20.7188 7.22345 18.891 5.39562C17.0632 3.56778 14.585 2.5396 12 2.53662ZM20.25 12.2866C20.2507 13.0475 20.1456 13.8047 19.9378 14.5366H16.3275C16.5575 13.0454 16.5575 11.5278 16.3275 10.0366H19.9378C20.1456 10.7685 20.2507 11.5258 20.25 12.2866ZM9.5625 16.0366H14.4375C13.9572 17.6103 13.1235 19.0533 12 20.2554C10.877 19.053 10.0433 17.6101 9.5625 16.0366ZM9.19688 14.5366C8.93939 13.0477 8.93939 11.5256 9.19688 10.0366H14.8106C15.0681 11.5256 15.0681 13.0477 14.8106 14.5366H9.19688ZM3.75 12.2866C3.74935 11.5258 3.85442 10.7685 4.06219 10.0366H7.6725C7.4425 11.5278 7.4425 13.0454 7.6725 14.5366H4.06219C3.85442 13.8047 3.74935 13.0475 3.75 12.2866ZM14.4375 8.53662H9.5625C10.0428 6.96294 10.8765 5.51992 12 4.31787C13.1231 5.52023 13.9567 6.96315 14.4375 8.53662ZM19.3434 8.53662H16.0041C15.5832 6.99247 14.8738 5.54194 13.9134 4.26162C15.0738 4.54037 16.1602 5.06672 17.098 5.80461C18.0359 6.5425 18.8032 7.47446 19.3472 8.53662H19.3434ZM10.0866 4.26162C9.12619 5.54194 8.41683 6.99247 7.99594 8.53662H4.65282C5.19682 7.47446 5.96407 6.5425 6.90196 5.80461C7.83985 5.06672 8.92621 4.54037 10.0866 4.26162ZM4.65282 16.0366H7.99594C8.41683 17.5808 9.12619 19.0313 10.0866 20.3116C8.92621 20.0329 7.83985 19.5065 6.90196 18.7686C5.96407 18.0307 5.19682 17.0988 4.65282 16.0366ZM13.9134 20.3116C14.8738 19.0313 15.5832 17.5808 16.0041 16.0366H19.3472C18.8032 17.0988 18.0359 18.0307 17.098 18.7686C16.1602 19.5065 15.0738 20.0329 13.9134 20.3116Z" fill="#12705B"/>
</svg>
