<svg width="24" height="25" viewBox="0 0 24 25" fill="none" xmlns="http://www.w3.org/2000/svg">
<path d="M21 4.78662H3C2.80109 4.78662 2.61032 4.86564 2.46967 5.00629C2.32902 5.14694 2.25 5.33771 2.25 5.53662V18.2866C2.25 18.6844 2.40804 19.066 2.68934 19.3473C2.97064 19.6286 3.35218 19.7866 3.75 19.7866H20.25C20.6478 19.7866 21.0294 19.6286 21.3107 19.3473C21.592 19.066 21.75 18.6844 21.75 18.2866V5.53662C21.75 5.33771 21.671 5.14694 21.5303 5.00629C21.3897 4.86564 21.1989 4.78662 21 4.78662ZM12 12.7694L4.92844 6.28662H19.0716L12 12.7694ZM9.25406 12.2866L3.75 17.3313V7.24193L9.25406 12.2866ZM10.3641 13.3038L11.4891 14.3397C11.6274 14.4668 11.8084 14.5372 11.9963 14.5372C12.1841 14.5372 12.3651 14.4668 12.5034 14.3397L13.6284 13.3038L19.0659 18.2866H4.92844L10.3641 13.3038ZM14.7459 12.2866L20.25 7.241V17.3322L14.7459 12.2866Z" fill="#12705B"/>
</svg>
