<svg width="191" height="58" viewBox="0 0 191 58" fill="none" xmlns="http://www.w3.org/2000/svg">
<path d="M46.3989 22.9369C46.3998 22.4039 46.1933 21.8915 45.823 21.5081C45.6432 21.3214 45.4276 21.1727 45.1892 21.0709C44.9508 20.9691 44.6944 20.9162 44.4351 20.9154C44.1054 20.9225 43.7829 21.0144 43.4971 21.1856L39.5554 16.7762C39.8045 16.3021 39.857 15.7491 39.7016 15.2366C39.5462 14.7241 39.1954 14.2934 38.7249 14.0374C38.4038 13.8679 38.041 13.7936 37.6791 13.8231C37.3172 13.8527 36.9712 13.985 36.6819 14.2044L30.6477 11.477C30.6453 11 30.4767 10.5388 30.1709 10.1727C29.8704 9.81149 29.4492 9.57129 28.9853 9.49647C28.5238 9.4242 28.0517 9.52333 27.6582 9.77515C27.2589 10.0315 26.9632 10.4209 26.8235 10.8743H17.6173C17.4892 10.4052 17.1957 9.99818 16.791 9.72847C16.3915 9.46171 15.9062 9.35494 15.4315 9.42937C14.9568 9.50379 14.5275 9.75397 14.2288 10.1302C13.9215 10.5106 13.7599 10.9881 13.7732 11.477C13.7692 11.5509 13.7692 11.6251 13.7732 11.6991L9.39863 14.0007C9.24296 13.7829 9.04464 13.599 8.81572 13.4603C8.58858 13.3234 8.33551 13.2351 8.0725 13.201C7.80949 13.1669 7.54226 13.1878 7.28772 13.2622C7.03306 13.3372 6.79678 13.4645 6.59163 13.6357C6.38615 13.8092 6.21773 14.0223 6.09645 14.2624C5.91098 14.6264 5.83805 15.0373 5.88693 15.4429C5.9358 15.8485 6.10429 16.2304 6.37092 16.5399L2.99093 20.9536C2.50138 20.8605 1.99483 20.962 1.57894 21.2365C1.15713 21.5163 0.856098 21.9445 0.735715 22.4361C0.612626 22.9312 0.676293 23.4575 0.915397 23.9059C1.1545 24.3544 1.54923 24.6925 2.02037 24.8537V30.4882C1.71477 30.5872 1.43746 30.7627 1.21251 30.9975C0.986484 31.2351 0.821426 31.5239 0.731471 31.8392C0.641666 32.1553 0.628446 32.4883 0.692906 32.8106C0.757365 33.1328 0.89765 33.4351 1.10215 33.6924C1.3073 33.947 1.56904 34.1451 1.86615 34.271C2.16273 34.3961 2.48617 34.4441 2.80631 34.4104C3.12645 34.3768 3.43285 34.2626 3.69692 34.0786C3.96291 33.8947 4.18079 33.6457 4.33217 33.3543L8.87373 34.0743C8.93032 34.5496 9.15103 34.9896 9.49483 35.3135C9.83863 35.6375 10.2829 35.8228 10.7498 35.8398L12.7843 39.8927C12.485 40.0229 12.2226 40.2251 12.0203 40.4812C11.8165 40.7424 11.6781 41.0486 11.6165 41.3741C11.555 41.6997 11.5722 42.0352 11.6666 42.3528C11.7628 42.6711 11.9326 42.9596 12.1618 43.1931C12.391 43.4265 12.6725 43.5991 12.9824 43.6938C13.292 43.7897 13.621 43.8053 13.9383 43.7389C14.2556 43.6726 14.5508 43.5266 14.7961 43.3147C15.0452 43.1025 15.239 42.8309 15.3621 42.5225L22.2621 44.7039C22.2876 45.1071 22.4319 45.4932 22.6724 45.8115C22.9129 46.1298 23.2426 46.3661 23.6175 46.4892L23.5142 53.0262C23.0621 53.1733 22.6782 53.4787 22.4333 53.8863C22.1861 54.2977 22.0894 54.7822 22.1598 55.257C22.2303 55.7317 22.4635 56.1673 22.8196 56.4892C23.1761 56.8047 23.6302 56.9787 24.1 56.9787C24.5697 56.9787 25.0238 56.8047 25.379 56.4906C25.7354 56.1686 25.9688 55.7328 26.0392 55.2577C26.1097 54.7826 26.0128 54.2978 25.7652 53.8863C25.5206 53.479 25.1373 53.1736 24.6857 53.0262L24.7989 46.4892C25.1526 46.3774 25.4695 46.1638 25.7114 45.8752C25.9532 45.5815 26.1091 45.2268 26.162 44.8501C26.215 44.4734 26.1628 44.0894 26.0114 43.7405C25.8613 43.3941 25.616 43.0973 25.304 42.8847L26.2745 39.9026L33.3911 42.4065C33.3911 42.838 33.5226 43.2581 33.7716 43.6047C34.0192 43.9527 34.3687 44.2088 34.7691 44.3375V53.0233C34.3174 53.1698 33.9336 53.4741 33.6882 53.8806C33.4405 54.2922 33.3437 54.777 33.4141 55.2521C33.4846 55.7271 33.718 56.163 34.0744 56.485C34.4268 56.7988 34.8822 56.9721 35.3541 56.9721C35.826 56.9721 36.2814 56.7988 36.6338 56.485C36.9902 56.163 37.2236 55.7271 37.2941 55.2521C37.3646 54.777 37.2677 54.2922 37.0201 53.8806C36.7752 53.4739 36.392 53.169 35.9405 53.0219V44.3361C36.2094 44.254 36.457 44.1112 36.6663 43.9202C36.9826 43.6253 37.197 43.2377 37.2789 42.8131C37.3608 42.3886 37.3058 41.9491 37.1219 41.5577L43.4037 36.1963C43.7121 36.3972 44.0687 36.5047 44.4351 36.5061C44.902 36.5018 45.3505 36.3278 45.7028 36.0152C46.0557 35.6946 46.2869 35.2618 46.3571 34.7902C46.4272 34.3186 46.332 33.8372 46.0876 33.4278C45.8465 33.0227 45.4679 32.7175 45.0208 32.5677V24.8481C45.417 24.7208 45.765 24.4675 46.0126 24.1238C46.2602 23.7814 46.3946 23.3655 46.3989 22.9369ZM43.4136 32.7714L37.6794 27.8061L43.3047 24.5977C43.4659 24.7094 43.6442 24.7957 43.8296 24.8523V32.5734C43.6815 32.622 43.5399 32.6885 43.4079 32.7714H43.4136ZM22.5522 43.5368L15.4597 41.2918C15.3776 40.9398 15.2033 40.6161 14.9546 40.3539C14.709 40.0956 14.3973 39.9097 14.0534 39.8163L11.8986 35.4974C12.0811 35.3645 12.2382 35.2004 12.3683 35.0151L21.4005 38.1895L22.8068 43.1648C22.7092 43.2779 22.6243 43.4024 22.5536 43.5354L22.5522 43.5368ZM9.08454 32.886L4.53874 32.1674C4.49393 31.785 4.34188 31.4231 4.10014 31.1234C3.86282 30.827 3.54421 30.6063 3.18334 30.4882V24.8523C3.4875 24.7529 3.76296 24.5811 3.986 24.3517C4.20904 24.1223 4.373 23.8421 4.46375 23.5353H9.08312L10.1485 31.9213C9.68492 32.0979 9.30609 32.4422 9.08454 32.886ZM7.93146 17.2968C8.05314 17.2968 8.1734 17.2826 8.29224 17.2586L8.93457 22.3343H4.46375C4.37701 22.0438 4.22616 21.7764 4.02233 21.552L7.39242 17.2091C7.56786 17.2656 7.74895 17.2939 7.93146 17.2968ZM11.327 31.8831L10.2659 23.5367H15.7936C15.9138 23.9371 16.1544 24.2893 16.4798 24.5411C16.8052 24.7957 17.1999 24.9372 17.6074 24.9499L18.6897 28.7468L12.1278 32.3513C11.9021 32.1331 11.6268 31.9729 11.3256 31.8845L11.327 31.8831ZM28.7307 23.1972L22.7644 26.5074L19.5952 23.2113C19.6421 22.9327 19.6264 22.6472 19.5494 22.3753C19.4723 22.1035 19.3357 21.8522 19.1495 21.6397L22.9469 17.9673L28.7731 22.3626C28.6807 22.6376 28.6598 22.9316 28.7123 23.217L28.7307 23.1972ZM19.0462 24.3614L21.6863 27.1016L19.7494 28.1527L18.7364 24.6076C18.8481 24.5362 18.9524 24.4537 19.0477 24.3614H19.0462ZM18.4464 22.9129C18.4467 23.0734 18.4005 23.2306 18.3134 23.3655C18.2273 23.4993 18.1031 23.6043 17.9568 23.6669C17.8121 23.729 17.6519 23.7454 17.4976 23.7138C17.3433 23.6822 17.2024 23.6041 17.0938 23.49C16.9816 23.3748 16.9056 23.2293 16.8752 23.0715C16.8448 22.9136 16.8613 22.7503 16.9226 22.6016C16.9816 22.4535 17.083 22.3261 17.2141 22.2352C17.3434 22.146 17.4969 22.0981 17.6541 22.098C17.762 22.0955 17.8692 22.1155 17.9689 22.157C18.0686 22.1984 18.1584 22.2602 18.2327 22.3385C18.3086 22.418 18.3678 22.512 18.4066 22.6147C18.4455 22.7175 18.4634 22.8271 18.4591 22.9369L18.4464 22.9129ZM12.756 33.8947V33.8239C12.756 33.6825 12.7418 33.541 12.7135 33.4038L19.0236 29.9294L20.9916 36.7904L12.756 33.8947ZM20.0819 29.3494L22.5437 27.9942L26.0821 31.6751C25.9088 32.1222 25.8988 32.6162 26.0538 33.0699C26.208 33.5226 26.5165 33.9046 26.9211 34.1408L25.5148 38.3918L22.3272 37.2686L20.0819 29.3494ZM27.9058 33.2114C27.749 33.2106 27.596 33.1623 27.4672 33.0728C27.3703 33.0031 27.2894 32.9135 27.2299 32.81C27.1704 32.7065 27.1338 32.5915 27.1224 32.4727C27.111 32.3538 27.1251 32.2339 27.1639 32.121C27.2026 32.0081 27.265 31.9048 27.347 31.818C27.4566 31.7056 27.5975 31.6287 27.7513 31.5971C27.9052 31.5656 28.065 31.581 28.21 31.6412C28.3552 31.7036 28.4784 31.8081 28.5637 31.9411C28.6512 32.0758 28.6979 32.233 28.6981 32.3937C28.7007 32.6095 28.6195 32.8179 28.4717 32.9752C28.3993 33.0511 28.3125 33.1119 28.2163 33.1539C28.1201 33.196 28.0164 33.2184 27.9115 33.2199L27.9058 33.2114ZM27.9058 30.3779C27.5153 30.3777 27.1341 30.4971 26.8136 30.7202L23.6161 27.4001L29.2428 24.2935C29.4107 24.4836 29.6148 24.6382 29.8434 24.7482C30.0719 24.8581 30.3201 24.9212 30.5734 24.9337C30.8267 24.9462 31.0799 24.908 31.3182 24.8211C31.5564 24.7342 31.7749 24.6005 31.9607 24.4279L35.6081 27.5797L29.4055 31.1064C29.2242 30.8825 28.9957 30.7013 28.7363 30.5759C28.4785 30.452 28.1961 30.3877 27.9101 30.3878L27.9058 30.3779ZM37.1545 17.7311C37.4056 17.8294 37.6754 17.8708 37.9445 17.8525C38.2136 17.8341 38.4753 17.7564 38.7108 17.625L42.6722 22.0641C42.5532 22.3066 42.4851 22.5709 42.4722 22.8407C42.4593 23.1106 42.5018 23.3802 42.5973 23.6329L36.6961 26.9757L32.5705 23.4052C32.678 22.9723 32.637 22.5139 32.453 22.1079L37.1545 17.7311ZM31.4542 22.9369C31.4548 23.0973 31.4091 23.2545 31.3226 23.3896C31.237 23.5224 31.1139 23.6267 30.9689 23.6895C30.8248 23.7523 30.6651 23.7698 30.5108 23.7394C30.3566 23.7091 30.2154 23.6325 30.1059 23.5197C29.9932 23.4057 29.9163 23.2614 29.8844 23.1044C29.8525 22.9474 29.867 22.7845 29.9262 22.6356C29.9832 22.4872 30.0825 22.3588 30.212 22.2664C30.3626 22.1593 30.5465 22.1094 30.7307 22.1258C30.9148 22.1421 31.087 22.2236 31.2165 22.3555C31.2925 22.432 31.3526 22.5227 31.3934 22.6225C31.4342 22.7223 31.4548 22.8291 31.4542 22.9369ZM29.8554 32.2311L36.5588 28.4328L42.1091 33.2241L29.7861 32.978C29.8427 32.7955 29.871 32.6059 29.8752 32.4135C29.8752 32.3471 29.8611 32.2905 29.8554 32.2311ZM44.4351 22.1221C44.5918 22.1226 44.7446 22.1705 44.8737 22.2593C45.0052 22.35 45.1071 22.4774 45.1666 22.6257C45.2261 22.7746 45.2416 22.9375 45.2113 23.095C45.1809 23.2525 45.106 23.3979 44.9954 23.5141C44.8867 23.628 44.7458 23.706 44.5915 23.7376C44.4373 23.7692 44.2771 23.7529 44.1323 23.6909C43.9863 23.6286 43.8622 23.5242 43.7758 23.391C43.6738 23.2333 43.6281 23.0458 43.6461 22.8588C43.6641 22.6719 43.7447 22.4965 43.8748 22.3612C43.9473 22.2855 44.0343 22.2253 44.1305 22.184C44.2268 22.1427 44.3304 22.1225 44.4351 22.1221ZM37.8152 15.0206C37.9722 15.0206 38.1264 15.0673 38.2552 15.1564C38.3868 15.247 38.4887 15.3745 38.5481 15.5228C38.6072 15.6719 38.6224 15.8348 38.5918 15.9923C38.5612 16.1497 38.4861 16.2951 38.3754 16.4112C38.2668 16.5251 38.1259 16.6031 37.9716 16.6347C37.8174 16.6663 37.6571 16.65 37.5124 16.588C37.3669 16.5255 37.2433 16.4211 37.1573 16.2881C37.0551 16.1305 37.0092 15.9429 37.0272 15.7559C37.0452 15.5689 37.1259 15.3935 37.2563 15.2583C37.3288 15.1831 37.4155 15.1232 37.5115 15.0821C37.6075 15.0411 37.7108 15.0197 37.8152 15.0192V15.0206ZM35.9405 15.1974C35.8361 15.4939 35.8037 15.8109 35.846 16.1223C35.8883 16.4337 36.0041 16.7306 36.1839 16.9884L31.6466 21.2096C31.3078 20.9956 30.9094 20.8956 30.5097 20.9244C30.1099 20.9531 29.7299 21.1091 29.4253 21.3695L23.8 17.1284L27.7841 13.2665C28.0558 13.4122 28.3557 13.4872 28.6613 13.49C28.9768 13.49 29.2881 13.4108 29.5668 13.2608C29.8469 13.1109 30.0875 12.893 30.2686 12.6256L35.9405 15.1974ZM26.9551 12.4347L22.8521 16.4013L17.5225 12.3767C17.5678 12.2819 17.606 12.1829 17.6357 12.0824H26.8093C26.8461 12.2041 26.8942 12.3229 26.9551 12.4347ZM28.6698 10.6635C28.8269 10.6635 28.9811 10.7116 29.1098 10.8008C29.2414 10.8914 29.3433 11.0188 29.4027 11.1672C29.4619 11.3162 29.4771 11.4792 29.4465 11.6366C29.4159 11.7941 29.3408 11.9395 29.2301 12.0555C29.1204 12.1679 28.9795 12.2449 28.8257 12.2764C28.6719 12.3079 28.5121 12.2926 28.367 12.2324C28.2215 12.1699 28.0978 12.0655 28.0119 11.9325C27.9473 11.8319 27.905 11.7185 27.8882 11.6001C27.8713 11.4817 27.8801 11.3611 27.9141 11.2464C27.9481 11.1318 28.0064 11.0258 28.085 10.9357C28.1637 10.8456 28.2608 10.7735 28.3699 10.7244C28.4666 10.6835 28.5705 10.6629 28.6755 10.6635H28.6698ZM15.7511 10.6635C15.9068 10.6635 16.061 10.7116 16.1912 10.8008C16.3222 10.8916 16.4235 11.0191 16.4826 11.1672C16.5421 11.3161 16.5577 11.479 16.5273 11.6364C16.497 11.7939 16.422 11.9394 16.3114 12.0555C16.2017 12.1679 16.0609 12.2449 15.907 12.2764C15.7532 12.3079 15.5934 12.2926 15.4484 12.2324C15.3023 12.1701 15.1782 12.0657 15.0918 11.9325C14.9899 11.7748 14.9442 11.5872 14.9621 11.4003C14.9801 11.2134 15.0607 11.038 15.1909 10.9026C15.2635 10.8273 15.3505 10.7673 15.4467 10.7262C15.543 10.6851 15.6465 10.6638 15.7511 10.6635ZM14.284 12.8053C14.5712 13.1533 14.9673 13.3881 15.4045 13.4702C15.8417 13.5508 16.2916 13.473 16.6778 13.2495L21.9862 17.2458L18.1238 20.9805C17.8833 20.9144 17.6321 20.8969 17.3849 20.9289C17.1376 20.961 16.8991 21.042 16.6835 21.1672C16.2449 21.4218 15.9209 21.8392 15.778 22.3357H10.1159L9.39014 16.6177C9.71554 16.2499 9.89523 15.7732 9.89664 15.2767V15.1267L14.2826 12.8067L14.284 12.8053ZM7.93146 14.4661C8.08851 14.4661 8.24272 14.5142 8.37147 14.6033C8.50307 14.6939 8.60496 14.8214 8.66434 14.9697C8.7237 15.1187 8.73899 15.2817 8.70839 15.4392C8.67779 15.5967 8.60259 15.7421 8.49173 15.8581C8.38205 15.9705 8.2412 16.0474 8.08735 16.0789C7.9335 16.1104 7.77374 16.0951 7.62869 16.0349C7.48299 15.972 7.35934 15.8671 7.27357 15.7336C7.17195 15.576 7.12645 15.3888 7.14442 15.2022C7.16239 15.0155 7.24279 14.8404 7.37261 14.7052C7.44493 14.6297 7.53166 14.5696 7.62765 14.5283C7.72365 14.4869 7.82696 14.4667 7.93146 14.4661ZM2.59761 22.1235C2.75324 22.1235 2.90746 22.1716 3.0362 22.2607C3.16775 22.3514 3.26962 22.4788 3.32907 22.6271C3.38861 22.776 3.40413 22.9389 3.37378 23.0964C3.34343 23.2539 3.2685 23.3993 3.15788 23.5155C3.04919 23.6294 2.90829 23.7074 2.75404 23.739C2.5998 23.7706 2.43958 23.7543 2.29484 23.6923C2.1488 23.63 2.02467 23.5256 1.93831 23.3924C1.83633 23.2347 1.79062 23.0472 1.8086 22.8603C1.82657 22.6733 1.90718 22.4979 2.03734 22.3626C2.10983 22.287 2.19679 22.2267 2.29304 22.1854C2.38929 22.1441 2.49287 22.1225 2.59761 22.1221V22.1235ZM2.59761 33.2213C2.44042 33.2212 2.28697 33.1734 2.1576 33.0841C2.02653 32.9933 1.92515 32.8658 1.86615 32.7177C1.80643 32.5689 1.79068 32.4061 1.82078 32.2486C1.85088 32.0911 1.92555 31.9456 2.03593 31.8293C2.14572 31.7166 2.28683 31.6395 2.44097 31.608C2.5951 31.5765 2.75516 31.592 2.90038 31.6525C3.04469 31.7147 3.1692 31.818 3.2555 31.9524C3.35748 32.1101 3.40319 32.2976 3.38521 32.4845C3.36723 32.6715 3.28663 32.8468 3.15646 32.9822C3.08402 33.0574 2.99724 33.1173 2.90125 33.1584C2.80526 33.1994 2.70202 33.2208 2.59761 33.2213ZM10.0226 33.8239C10.0226 33.6627 10.0692 33.5056 10.1556 33.3713C10.2419 33.238 10.366 33.1336 10.5121 33.0713C10.6568 33.0092 10.8171 32.9928 10.9713 33.0244C11.1256 33.056 11.2665 33.1341 11.3751 33.2482C11.4873 33.3634 11.5633 33.5089 11.5937 33.6668C11.6241 33.8246 11.6076 33.9879 11.5463 34.1366C11.4873 34.2847 11.3859 34.4121 11.2549 34.503C11.1032 34.6076 10.9193 34.6548 10.736 34.6361C10.5527 34.6175 10.382 34.5341 10.2546 34.4011C10.1051 34.2462 10.0219 34.0392 10.0226 33.8239ZM13.5667 42.572C13.4095 42.5719 13.256 42.5241 13.1267 42.4348C12.9956 42.344 12.8942 42.2166 12.8352 42.0684C12.7757 41.9195 12.7602 41.7566 12.7905 41.5991C12.8208 41.4416 12.8958 41.2962 13.0064 41.18C13.1161 41.0676 13.2569 40.9907 13.4108 40.9592C13.5646 40.9277 13.7244 40.943 13.8694 41.0032C14.0138 41.0654 14.1383 41.1701 14.226 41.3031C14.3281 41.4615 14.3735 41.6499 14.3548 41.8375C14.336 42.0251 14.2542 42.2007 14.1227 42.3358C14.0488 42.4108 13.9607 42.4703 13.8635 42.5109C13.7663 42.5514 13.6621 42.5722 13.5568 42.572H13.5667ZM24.0858 55.7791C23.9286 55.7789 23.7752 55.731 23.6458 55.6418C23.514 55.5509 23.4121 55.4229 23.3529 55.274C23.2941 55.1251 23.279 54.9625 23.3096 54.8053C23.3402 54.6481 23.4151 54.503 23.5255 54.3871C23.6342 54.2732 23.7751 54.1952 23.9294 54.1636C24.0836 54.132 24.2439 54.1482 24.3886 54.2102C24.5329 54.2711 24.6574 54.3757 24.7437 54.5101C24.8459 54.6678 24.8918 54.8553 24.8738 55.0423C24.8558 55.2293 24.7751 55.4047 24.6447 55.54C24.5722 55.6152 24.4854 55.675 24.3895 55.7161C24.2935 55.7572 24.1902 55.7786 24.0858 55.7791ZM24.2032 45.4041C24.047 45.3983 23.8961 45.3456 23.7703 45.2528C23.6761 45.1808 23.5983 45.0897 23.542 44.9854C23.4857 44.8811 23.4521 44.7661 23.4436 44.6479C23.435 44.5297 23.4516 44.411 23.4923 44.2997C23.5331 44.1884 23.5969 44.087 23.6798 44.0022C23.7896 43.8909 23.9307 43.8155 24.0843 43.7862C24.2379 43.7569 24.3969 43.775 24.54 43.8381C24.6841 43.9017 24.8062 44.0066 24.8908 44.1394C24.9923 44.2976 25.0373 44.4854 25.0185 44.6724C24.9998 44.8593 24.9184 45.0344 24.7876 45.1693C24.7136 45.244 24.6254 45.3033 24.5282 45.3436C24.4311 45.3839 24.3268 45.4045 24.2216 45.4041H24.2032ZM24.1566 42.572C24.0533 42.5749 23.9514 42.5862 23.851 42.606L22.7304 38.6874L25.1455 39.5362L24.1566 42.572ZM28.0699 34.428C28.3501 34.4039 28.6217 34.3191 28.8665 34.1762L42.4614 34.4563V34.5044C42.4614 34.7802 42.518 35.0533 42.6255 35.3051L36.3254 40.6764C36.0327 40.4986 35.6973 40.4033 35.3548 40.4006C35.0365 40.4006 34.7224 40.4812 34.4408 40.634C34.1579 40.7868 33.9174 41.0089 33.7377 41.2791L26.6452 38.7695L28.0699 34.428ZM35.3364 55.7791C35.1793 55.7788 35.0259 55.731 34.8964 55.6418C34.7995 55.5722 34.7186 55.4826 34.6591 55.3791C34.5996 55.2756 34.5629 55.1606 34.5516 55.0417C34.5402 54.9229 34.5543 54.803 34.5931 54.6901C34.6318 54.5772 34.6942 54.4739 34.7762 54.3871C34.8848 54.2732 35.0257 54.1952 35.18 54.1636C35.3342 54.132 35.4945 54.1482 35.6392 54.2102C35.7835 54.2711 35.908 54.3757 35.9943 54.5101C36.0963 54.6678 36.142 54.8554 36.124 55.0423C36.106 55.2292 36.0254 55.4046 35.8953 55.54C35.8228 55.6152 35.7361 55.675 35.6401 55.7161C35.5441 55.7572 35.4408 55.7786 35.3364 55.7791ZM35.3364 43.2327C35.1792 43.2326 35.0258 43.1847 34.8964 43.0954C34.7995 43.0258 34.7186 42.9362 34.6591 42.8327C34.5996 42.7292 34.5629 42.6142 34.5516 42.4953C34.5402 42.3765 34.5543 42.2566 34.5931 42.1437C34.6318 42.0308 34.6942 41.9275 34.7762 41.8407C34.886 41.7285 35.0269 41.6519 35.1808 41.6206C35.3346 41.5893 35.4943 41.6049 35.6392 41.6652C35.7835 41.7261 35.908 41.8308 35.9943 41.9652C36.0963 42.1229 36.142 42.3104 36.124 42.4973C36.106 42.6842 36.0254 42.8596 35.8953 42.995C35.8228 43.0702 35.7361 43.1301 35.6401 43.1711C35.5441 43.2122 35.4408 43.2322 35.3364 43.2327ZM44.4195 35.3008C44.2628 35.3004 44.1099 35.2526 43.9809 35.1636C43.884 35.0939 43.8031 35.0043 43.7436 34.9008C43.6841 34.7973 43.6475 34.6823 43.6361 34.5635C43.6247 34.4447 43.6388 34.3248 43.6776 34.2119C43.7163 34.099 43.7787 33.9956 43.8607 33.9088C43.9704 33.7964 44.1112 33.7195 44.2651 33.688C44.4189 33.6565 44.5787 33.6718 44.7237 33.732C44.868 33.7942 44.9925 33.8975 45.0788 34.0319C45.1805 34.1886 45.2265 34.3749 45.2096 34.5608C45.1927 34.7468 45.1137 34.9217 44.9855 35.0575C44.9142 35.1325 44.8287 35.1927 44.734 35.2344C44.6392 35.2762 44.5372 35.2988 44.4337 35.3008H44.4195Z" fill="white"/>
<path d="M66.2645 41.6069C65.8259 41.6069 65.4849 41.4867 65.243 41.2448C65.0237 40.9817 64.9133 40.6308 64.9133 40.1909V19.3448C64.9133 18.8837 65.0237 18.5314 65.243 18.2909C65.4835 18.049 65.8245 17.9288 66.2645 17.9288C66.7031 17.9288 67.0327 18.049 67.252 18.2909C67.4925 18.5314 67.6142 18.8837 67.6142 19.3448V40.1909C67.6142 40.6294 67.5053 40.9817 67.2846 41.2448C67.0653 41.4853 66.7257 41.6069 66.2645 41.6069ZM74.6911 41.6069C74.295 41.6069 73.988 41.498 73.7687 41.2787C73.5494 41.0368 73.439 40.7072 73.439 40.2899V19.2458C73.439 18.8073 73.5494 18.4777 73.7687 18.257C73.988 18.0377 74.295 17.9288 74.6911 17.9288C75.042 17.9288 75.3165 18.0052 75.5145 18.158C75.7338 18.2909 75.9319 18.5215 76.1073 18.8511L85.1324 35.8437H84.1435L93.1361 18.8497C93.3115 18.5215 93.4982 18.2909 93.6963 18.158C93.8944 18.0052 94.1788 17.9288 94.5523 17.9288C94.9258 17.9288 95.2215 18.0377 95.4408 18.257C95.6615 18.4777 95.7704 18.8059 95.7704 19.2458V40.2899C95.7704 40.7072 95.6615 41.0368 95.4408 41.2787C95.2427 41.498 94.9371 41.6069 94.5197 41.6069C94.1236 41.6069 93.8166 41.498 93.5973 41.2787C93.3766 41.0368 93.2676 40.7072 93.2676 40.2899V21.7808H94.0585L85.8243 37.2272C85.6687 37.513 85.5045 37.7224 85.3291 37.8525C85.1763 37.9628 84.9457 38.018 84.6373 38.018C84.3302 38.018 84.0883 37.9515 83.9129 37.82C83.7153 37.6608 83.5574 37.4579 83.4516 37.2272L75.1184 21.7483H75.9107V40.2899C75.9107 40.7072 75.7989 41.0368 75.5796 41.2787C75.3815 41.498 75.0858 41.6069 74.6911 41.6069ZM102.867 41.6069C102.472 41.6069 102.165 41.498 101.946 41.2787C101.725 41.0368 101.616 40.7072 101.616 40.2899V19.2458C101.616 18.8073 101.725 18.4777 101.946 18.257C102.165 18.0377 102.472 17.9288 102.867 17.9288C103.219 17.9288 103.494 18.0052 103.692 18.158C103.911 18.2909 104.108 18.5215 104.283 18.8511L113.31 35.8437H112.321L121.314 18.8497C121.489 18.5215 121.676 18.2909 121.872 18.158C122.07 18.0052 122.356 17.9288 122.73 17.9288C123.103 17.9288 123.399 18.0377 123.618 18.257C123.838 18.4777 123.948 18.8059 123.948 19.2458V40.2899C123.948 40.7072 123.838 41.0368 123.618 41.2787C123.42 41.498 123.113 41.6069 122.696 41.6069C122.301 41.6069 121.994 41.498 121.775 41.2787C121.554 41.0368 121.445 40.7072 121.445 40.2899V21.7808H122.235L114 37.2272C113.848 37.513 113.682 37.7224 113.507 37.8525C113.352 37.9628 113.122 38.018 112.815 38.018C112.508 38.018 112.266 37.9515 112.09 37.82C111.893 37.6607 111.735 37.4578 111.629 37.2272L103.296 21.7483H104.087V40.2899C104.087 40.7072 103.976 41.0368 103.757 41.2787C103.559 41.498 103.262 41.6069 102.867 41.6069ZM139.477 41.6734C137.326 41.6734 135.447 41.1896 133.846 40.2248C132.264 39.236 131.035 37.8525 130.156 36.0743C129.299 34.2961 128.871 32.1883 128.871 29.7509C128.871 27.9076 129.112 26.261 129.596 24.811C130.101 23.3398 130.814 22.1005 131.736 21.0905C132.655 20.0611 133.792 19.2505 135.064 18.7182C136.38 18.1481 137.851 17.8623 139.478 17.8623C141.673 17.8623 143.561 18.3447 145.142 19.3109C146.745 20.2771 147.974 21.6493 148.832 23.4275C149.71 25.1845 150.149 27.2809 150.149 29.7184C150.149 31.563 149.896 33.221 149.392 34.6908C148.887 36.162 148.172 37.414 147.25 38.4452C146.32 39.4831 145.173 40.304 143.891 40.8501C142.595 41.399 141.124 41.6734 139.477 41.6734ZM139.477 39.2685C141.146 39.2685 142.551 38.8951 143.693 38.1496C144.857 37.4026 145.746 36.3162 146.361 34.8888C146.975 33.4615 147.284 31.7484 147.284 29.7509C147.284 26.7434 146.602 24.4163 145.241 22.7697C143.901 21.1004 141.98 20.2658 139.477 20.2658C137.853 20.2658 136.458 20.6392 135.293 21.3862C134.152 22.1331 133.274 23.2195 132.659 24.6469C132.043 26.0516 131.736 27.7534 131.736 29.7509C131.736 32.7372 132.417 35.0756 133.779 36.7675C135.14 38.4353 137.039 39.2685 139.477 39.2685Z" fill="white"/>
<path d="M157.019 41.673C156.186 41.673 155.548 41.4424 155.109 40.9813C154.671 40.5201 154.45 39.8722 154.45 39.0376V20.4959C154.45 19.6613 154.671 19.0148 155.109 18.5537C155.548 18.0925 156.186 17.8619 157.019 17.8619C157.833 17.8619 158.458 18.0925 158.897 18.5537C159.337 19.0148 159.556 19.6627 159.556 20.4959V39.0376C159.556 39.8722 159.337 40.5201 158.897 40.9813C158.479 41.4424 157.854 41.673 157.019 41.673ZM184.42 44.7032C184.771 45.2733 184.902 45.7896 184.815 46.2508C184.727 46.7332 184.508 47.1278 184.157 47.4362C183.8 47.7678 183.353 47.9855 182.872 48.0615C182.372 48.1478 181.858 48.0909 181.389 47.8974C180.907 47.722 180.489 47.3697 180.137 46.8435L177.799 43.024C177.526 42.5949 177.138 42.2516 176.679 42.0337C176.241 41.8371 175.669 41.7381 174.966 41.7381L178.853 40.257C179.863 40.257 180.686 40.4324 181.323 40.7832C181.982 41.1355 182.575 41.7381 183.103 42.5939L184.42 44.7032ZM175 41.7381C172.715 41.7381 170.706 41.2444 168.971 40.257C167.26 39.2469 165.92 37.8422 164.953 36.0414C164.01 34.2405 163.537 32.144 163.537 29.7505C163.537 27.9284 163.8 26.2931 164.328 24.8445C164.877 23.3733 165.657 22.1214 166.667 21.0901C167.687 20.0292 168.922 19.1982 170.289 18.6527C171.716 18.0812 173.287 17.7954 175 17.7954C177.327 17.7954 179.348 18.2905 181.06 19.2779C182.773 20.2654 184.102 21.6602 185.045 23.461C186.012 25.2392 186.495 27.3244 186.495 29.7179C186.495 31.54 186.221 33.1866 185.671 34.6578C185.122 36.1291 184.343 37.3909 183.333 38.4448C182.313 39.5057 181.077 40.3367 179.71 40.8822C178.304 41.4537 176.735 41.7381 175 41.7381ZM175 37.3909C176.295 37.3909 177.392 37.0938 178.294 36.5025C179.216 35.8872 179.918 35.0087 180.402 33.8671C180.907 32.7042 181.159 31.332 181.159 29.7505C181.159 27.3357 180.621 25.4698 179.544 24.1528C178.469 22.8131 176.954 22.144 175 22.144C173.725 22.144 172.627 22.4397 171.706 23.0324C170.784 23.6265 170.081 24.4923 169.598 25.6353C169.114 26.7755 168.872 28.1477 168.872 29.7519C168.872 32.144 169.411 34.0213 170.487 35.3821C171.563 36.7218 173.067 37.3909 175 37.3909Z" fill="white"/>
</svg>
